<?xml version="1.0" encoding="UTF-8" standalone="no"?>
<svg
        width="345"
        height="345"
        viewBox="0 0 91.281251 91.28125"
        version="1.1"
        id="svg1"
        xmlns="http://www.w3.org/2000/svg"
>
    <defs
            id="defs1"/>
    <g
            id="layer1"
            transform="translate(-59.439293,-112.18333)">
        <g
                id="g1"
                transform="translate(0.04034553,9.2604153)">
            <path
                    d="M 75.935417,173.30208 78.845834,158.75 h 52.387496 l 3.4925,14.55208 -6.55134,1.05675 c -7.6499,1.23375 -15.38632,1.85367 -23.13491,1.85367 -7.74779,0 -15.482355,-0.64003 -23.124924,-1.914 z"
                    fill="#c6a85b"
                    id="path1"
                    style="stroke-width:0.264583"/>
            <path
                    d="m 130.65125,158.75 v -5.42396 c 0,-6.71459 0.68342,-13.41199 2.03994,-19.98848 l 1.16152,-5.63192 3.20146,-12.41787 c 0,-1.71453 -1.38986,-3.10444 -3.10436,-3.10444 h -3.29856 -9.60438 -16.00729 -16.007288 -9.604375 -3.298481 c -1.714527,0 -3.104436,1.38991 -3.104436,3.10444 l 3.201459,12.41787 1.1616,5.63192 c 1.356386,6.57649 2.039858,13.27389 2.039858,19.98848 V 158.75 Z"
                    fill="#000000"
                    id="path2"
                    style="stroke-width:0.264583"/>
            <path
                    d="m 125.63845,172.67476 -3.13637,0.62732 c -11.56202,1.92696 -23.362969,1.92696 -34.924996,0 l -3.136503,-0.62732 c -7.591822,-1.51845 -15.315063,-2.28309 -23.057248,-2.28309 -1.86463,0 -2.655871,2.37384 -1.164166,3.4925 l 6.204214,4.65322 c 0.514615,0.38577 1.105588,0.65776 1.733524,0.79719 l 16.405807,3.6457 c 5.872401,1.30519 11.87024,1.96347 17.886068,1.96347 h 2.5908 2.5908 c 6.01583,0 12.01367,-0.65828 17.8861,-1.96347 l 16.40576,-3.6457 c 0.62785,-0.13943 1.21893,-0.41142 1.73355,-0.79719 l 6.20421,-4.65322 c 1.49172,-1.11866 0.70035,-3.4925 -1.16417,-3.4925 -7.74223,0 -15.46542,0.76464 -23.05738,2.28309 z"
                    fill="#000000"
                    id="path3"
                    style="stroke-width:0.264583"/>
            <path
                    d="m 130.65125,158.75 v -5.42396 c 0,-6.71459 0.68342,-13.41199 2.03994,-19.98848 l 1.16152,-5.63192 3.20146,-12.41787 c 0,-1.71453 -1.38986,-3.10444 -3.10436,-3.10444 h -3.29856 -9.60438 l -3.73406,15.93189 c -2.35347,10.04147 -3.54198,20.32106 -3.54198,30.63478 z"
                    fill="#383838"
                    id="path4"
                    style="stroke-width:0.264583"/>
            <path
                    d="m 134.14375,170.39167 -14.70131,4.90034 c -1.8288,0.6096 -3.74385,0.92049 -5.67161,0.92049 V 158.75 h 17.4625 z"
                    fill="#e7ce8f"
                    id="path5"
                    style="stroke-width:0.264583"/>
            <path
                    d="m 125.63845,172.67476 -3.13637,0.62732 -8.73125,1.16417 v 4.65667 l 2.91042,5.29695 13.09687,-2.64847 12.09887,-2.44661 c 0.65696,-0.13282 1.27635,-0.41063 1.81266,-0.8128 l 6.17035,-4.62782 c 1.49172,-1.11866 0.70035,-3.4925 -1.16417,-3.4925 -7.74223,0 -15.46542,0.76464 -23.05738,2.28309 z"
                    fill="#383838"
                    id="path6"
                    style="stroke-width:0.264583"/>
        </g>
    </g>
</svg>
