<?xml version="1.0" standalone="no"?>
<!DOCTYPE svg PUBLIC "-//W3C//DTD SVG 20010904//EN"
 "http://www.w3.org/TR/2001/REC-SVG-20010904/DTD/svg10.dtd">
<svg version="1.0" xmlns="http://www.w3.org/2000/svg"
 width="260.000000pt" height="260.000000pt" viewBox="0 0 260.000000 260.000000"
 preserveAspectRatio="xMidYMid meet">
<metadata>
Created by potrace 1.14, written by Peter Selinger 2001-2017
</metadata>
<g transform="translate(0.000000,260.000000) scale(0.100000,-0.100000)"
fill="#000000" stroke="none">
<path d="M183 2579 c-63 -24 -122 -79 -154 -145 l-24 -49 -2 -1080 -2 -1080
26 -53 c31 -66 76 -112 139 -143 l49 -24 1085 0 c1080 0 1085 0 1130 21 61 28
126 96 149 158 19 50 20 79 18 1126 l-2 1075 -25 50 c-31 65 -90 120 -154 144
-49 19 -83 20 -1116 20 -1038 0 -1066 -1 -1117 -20z"/>
</g>
</svg>
