<?xml version="1.0" encoding="UTF-8"?>
<!DOCTYPE svg PUBLIC "-//W3C//DTD SVG 1.1//EN" "http://www.w3.org/Graphics/SVG/1.1/DTD/svg11.dtd">
<svg xmlns="http://www.w3.org/2000/svg" version="1.1" width="1024px" height="1024px" style="shape-rendering:geometricPrecision; text-rendering:geometricPrecision; image-rendering:optimizeQuality; fill-rule:evenodd; clip-rule:evenodd" xmlns:xlink="http://www.w3.org/1999/xlink">
<g><path style="opacity:1" fill="#fefefe" d="M -0.5,-0.5 C 340.833,-0.5 682.167,-0.5 1023.5,-0.5C 1023.5,340.833 1023.5,682.167 1023.5,1023.5C 682.167,1023.5 340.833,1023.5 -0.5,1023.5C -0.5,682.167 -0.5,340.833 -0.5,-0.5 Z"/></g>
<g><path style="opacity:1" fill="#050404" d="M 820.5,745.5 C 820.56,746.043 820.893,746.376 821.5,746.5C 822.817,740.346 822.817,734.346 821.5,728.5C 818.342,704.853 809.175,683.853 794,665.5C 793.845,654.791 793.178,644.125 792,633.5C 787.981,618.377 778.148,609.544 762.5,607C 754.136,606.503 745.802,606.503 737.5,607C 727.369,599.203 718.203,590.37 710,580.5C 706.874,573.809 704.374,566.975 702.5,560C 697.051,559.104 691.718,559.437 686.5,561C 683.959,565.275 681.792,569.775 680,574.5C 676.992,578.902 673.325,579.569 669,576.5C 666.804,571.58 664.804,566.58 663,561.5C 662.117,558.898 660.617,556.731 658.5,555C 654.5,554.333 650.5,554.333 646.5,555C 643.091,560.828 638.758,565.828 633.5,570C 611.912,573.945 600.246,564.778 598.5,542.5C 592.824,542.334 587.157,542.501 581.5,543C 573.114,544.68 564.78,546.514 556.5,548.5C 556.227,541.88 558.561,536.38 563.5,532C 580.865,521.056 599.531,518.39 619.5,524C 635.869,527.509 652.202,531.176 668.5,535C 683.37,538.023 698.37,539.023 713.5,538C 730.414,535.63 747.414,534.464 764.5,534.5C 764.5,539.833 764.5,545.167 764.5,550.5C 755.78,550.87 747.113,551.703 738.5,553C 733.535,559.091 730.369,565.924 729,573.5C 733.016,577.348 736.849,581.348 740.5,585.5C 792.004,583.17 816.837,607.837 815,659.5C 837.258,689.524 846.258,723.191 842,760.5C 840.192,803.601 823.692,839.767 792.5,869C 772.5,883.054 750.166,890.221 725.5,890.5C 697.551,890.181 671.551,883.014 647.5,869C 619.702,850.036 596.036,826.869 576.5,799.5C 560.678,771.559 553.845,741.559 556,709.5C 559.014,689.155 566.181,670.489 577.5,653.5C 550.945,645.816 528.112,632.149 509,612.5C 496.558,598.943 489.558,582.943 488,564.5C 487.333,553.167 487.333,541.833 488,530.5C 498.891,481.281 529.391,453.114 579.5,446C 588.167,445.333 596.833,445.333 605.5,446C 631.88,450.9 657.714,458.067 683,467.5C 690.113,465.462 697.28,463.629 704.5,462C 713.299,461.027 721.965,461.694 730.5,464C 739.318,467.906 747.652,472.573 755.5,478C 757.5,478.667 759.5,478.667 761.5,478C 783.503,467.591 802.67,453.424 819,435.5C 822.982,426.163 819.982,421.83 810,422.5C 777.503,425.69 745.003,426.023 712.5,423.5C 707.128,396.675 702.461,370.008 698.5,343.5C 697.488,320.471 695.988,297.471 694,274.5C 693.667,235.833 693.333,197.167 693,158.5C 689.703,155.433 685.869,153.267 681.5,152C 569.309,120.392 457.643,122.392 346.5,158C 319.514,166.577 294.348,178.744 271,194.5C 274.041,246.165 280.041,297.499 289,348.5C 290.447,363.191 292.114,377.858 294,392.5C 294.667,396.5 294.667,400.5 294,404.5C 277.932,411.081 262.099,418.248 246.5,426C 231.979,434.352 218.813,444.518 207,456.5C 202.304,462.556 198.637,469.223 196,476.5C 194.387,484.77 195.72,492.437 200,499.5C 210.027,509.435 221.527,517.268 234.5,523C 235.804,523.804 236.471,524.971 236.5,526.5C 224.716,589.202 214.883,652.202 207,715.5C 206.333,720.167 206.333,724.833 207,729.5C 208.122,731.624 209.622,733.457 211.5,735C 260.792,776.3 311.792,815.3 364.5,852C 411.873,882.554 458.539,914.054 504.5,946.5C 499.802,946.678 495.135,945.845 490.5,944C 373.219,894.981 269.719,825.815 180,736.5C 181.942,709.08 184.942,681.747 189,654.5C 195.062,617.521 201.896,580.688 209.5,544C 209.167,542.5 208.833,541 208.5,539.5C 200.988,534.243 193.654,528.743 186.5,523C 172.914,508.899 167.747,492.066 171,472.5C 176.075,456.508 184.575,442.674 196.5,431C 217.519,414.9 240.352,401.734 265,391.5C 261.353,323.322 253.186,255.656 240.5,188.5C 240.94,185.786 242.274,183.62 244.5,182C 265.507,165.991 288.507,153.324 313.5,144C 404.577,109.768 498.577,98.101 595.5,109C 629.621,113.948 663.288,120.948 696.5,130C 705.729,132.367 714.229,136.201 722,141.5C 721.685,186.831 721.685,232.164 722,277.5C 724.179,319.087 730.179,360.087 740,400.5C 740.5,401 741,401.5 741.5,402C 743.5,402.167 745.5,402.333 747.5,402.5C 765.932,401.076 784.265,398.909 802.5,396C 811.541,395.235 820.541,395.569 829.5,397C 848.431,404.033 854.597,417.2 848,436.5C 845.755,441.997 842.755,446.997 839,451.5C 818.529,473.31 794.362,489.477 766.5,500C 762.833,500.667 759.167,500.667 755.5,500C 743.546,494.08 731.546,488.08 719.5,482C 706.524,481.867 694.024,484.367 682,489.5C 657.266,479.366 631.766,471.866 605.5,467C 578.057,463.607 553.724,470.607 532.5,488C 507.529,514.26 500.696,544.76 512,579.5C 518.958,594.459 529.458,606.293 543.5,615C 565.063,628.74 588.397,637.073 613.5,640C 605.907,649.984 598.407,660.151 591,670.5C 578.398,692.178 573.731,715.512 577,740.5C 581.681,766.934 593.014,789.934 611,809.5C 623.265,822.77 636.432,834.937 650.5,846C 684.664,869.738 721.664,875.405 761.5,863C 775.164,857.407 786.331,848.573 795,836.5C 811.464,814.94 819.631,790.607 819.5,763.5C 817.556,762.811 815.556,762.311 813.5,762C 779.465,758.523 745.799,760.523 712.5,768C 696.651,772.962 680.651,777.295 664.5,781C 642.036,785.4 623.203,779.234 608,762.5C 605.977,760.231 605.144,757.564 605.5,754.5C 625.662,758.259 645.996,759.426 666.5,758C 692.372,749.827 718.705,743.827 745.5,740C 765.897,738.97 786.23,739.636 806.5,742C 811.208,743.071 815.874,744.237 820.5,745.5 Z"/></g>
<g><path style="opacity:1" fill="#c5a85a" d="M 698.5,343.5 C 702.461,370.008 707.128,396.675 712.5,423.5C 703.111,422.849 693.777,421.683 684.5,420C 625.963,407.026 567.296,394.693 508.5,383C 493.58,380.608 478.58,378.941 463.5,378C 438.36,377.326 413.36,376.326 388.5,375C 393.81,371.894 399.477,369.561 405.5,368C 502.019,339.284 599.686,331.117 698.5,343.5 Z"/></g>
<g><path style="opacity:1" fill="#060606" d="M 312.5,484.5 C 336.862,481.424 353.028,491.424 361,514.5C 361.917,524.334 358.25,532.001 350,537.5C 343.858,529.39 337.358,521.557 330.5,514C 321.445,510.184 312.778,510.85 304.5,516C 298.14,521.02 293.307,527.187 290,534.5C 289.169,542.188 289.335,549.855 290.5,557.5C 294.813,554.091 298.813,550.257 302.5,546C 308.648,540.9 315.648,539.233 323.5,541C 328.689,543.913 329.856,548.08 327,553.5C 321.175,558.99 316.509,565.323 313,572.5C 310.274,582.908 311.274,592.908 316,602.5C 318.422,606.344 321.089,610.01 324,613.5C 331.127,619.97 338.794,625.636 347,630.5C 349.262,644.546 343.429,651.046 329.5,650C 302.341,641.51 283.508,624.01 273,597.5C 262.931,571.511 261.931,545.178 270,518.5C 278.149,499.506 292.316,488.172 312.5,484.5 Z"/></g>
<g><path style="opacity:1" fill="#060606" d="M 676.5,601.5 C 682.842,601.334 689.175,601.5 695.5,602C 697.037,603.11 697.703,604.61 697.5,606.5C 669.123,607.92 658.957,622.254 667,649.5C 672.808,659.981 680.141,669.315 689,677.5C 689.688,678.332 689.521,678.998 688.5,679.5C 670.806,674.3 658.306,663.3 651,646.5C 646.127,623.551 654.627,608.551 676.5,601.5 Z"/></g>
<g><path style="opacity:1" fill="#060606" d="M 758.5,626.5 C 772.39,625.893 778.557,632.559 777,646.5C 772.457,655.544 765.957,662.878 757.5,668.5C 755.157,666.005 753.657,663.005 753,659.5C 751.108,650.472 751.108,641.472 753,632.5C 754.36,629.977 756.193,627.977 758.5,626.5 Z"/></g>
<g><path style="opacity:1" fill="#070707" d="M 698.5,629.5 C 702.846,629.334 707.179,629.501 711.5,630C 720.288,637.777 727.121,646.944 732,657.5C 732.893,660.916 732.393,664.083 730.5,667C 717.239,665.285 706.072,659.452 697,649.5C 692.928,644.868 691.595,639.535 693,633.5C 694.812,632.023 696.645,630.69 698.5,629.5 Z"/></g>
<g><path style="opacity:1" fill="#8c7d7d" d="M 821.5,728.5 C 822.817,734.346 822.817,740.346 821.5,746.5C 820.893,746.376 820.56,746.043 820.5,745.5C 821.489,740.025 821.822,734.358 821.5,728.5 Z"/></g>
</svg>
