<?xml version="1.0" encoding="UTF-8" standalone="no"?>
<!-- Created with Inkscape (http://www.inkscape.org/) -->

<svg
   width="1200"
   height="630"
   viewBox="0 0 1200 630"
   version="1.1"
   id="svg1"
   xml:space="preserve"
   inkscape:version="1.4.2 (f4327f4, 2025-05-13)"
   sodipodi:docname="SIR-Twitter.svg"
   xmlns:inkscape="http://www.inkscape.org/namespaces/inkscape"
   xmlns:sodipodi="http://sodipodi.sourceforge.net/DTD/sodipodi-0.dtd"
   xmlns="http://www.w3.org/2000/svg"
   xmlns:svg="http://www.w3.org/2000/svg"><sodipodi:namedview
     id="namedview1"
     pagecolor="#b1b1b1"
     bordercolor="#999999"
     borderopacity="1"
     inkscape:showpageshadow="2"
     inkscape:pageopacity="0"
     inkscape:pagecheckerboard="0"
     inkscape:deskcolor="#d1d1d1"
     inkscape:document-units="px"
     inkscape:zoom="0.67539683"
     inkscape:cx="578.91892"
     inkscape:cy="160.6463"
     inkscape:window-width="1920"
     inkscape:window-height="1111"
     inkscape:window-x="-9"
     inkscape:window-y="-9"
     inkscape:window-maximized="1"
     inkscape:current-layer="layer1"
     showguides="true" /><defs
     id="defs1" /><g
     inkscape:label="Layer 1"
     inkscape:groupmode="layer"
     id="layer1"><rect
       style="fill:#1a1a1a;stroke:none;stroke-width:0.992;stroke-dasharray:none"
       id="rect1"
       width="1200"
       height="630"
       x="0"
       y="0" /><g
       id="g7"
       transform="translate(8.5937881,-15.294122)"><g
         id="g1"
         transform="matrix(0.3983524,0,0,0.3983524,70.430972,120.38706)"><g
           fill="#fcfcfc"
           id="g3"><path
             d="M 495,945.6 C 479.6,941 424.2,914.7 392.4,897 320.3,856.8 252.2,806.3 193.7,749.9 l -13.9,-13.4 1.6,-15.5 c 5.8,-54.9 14.1,-106.9 25.2,-158 2.4,-11.2 4.3,-20.9 4,-21.5 -0.2,-0.6 -4.9,-4.2 -10.4,-7.9 -21,-14.1 -29.6,-28.4 -29.6,-49.1 0,-10 1.5,-15.6 7.2,-27 8,-16.1 17.4,-26.1 36.3,-38.5 13.6,-8.9 26.9,-15.9 40.4,-21.5 5,-2.1 9.6,-4.2 10.3,-4.8 1.4,-1.1 1.5,-0.4 -1.9,-40.7 -3.7,-44.2 -10.2,-94.1 -17.9,-137 -2.2,-12.4 -4,-23.9 -4,-25.6 0,-3.4 1.7,-5.3 11.4,-12.4 21.6,-15.9 49.3,-29 88.8,-42.1 C 402.8,114.5 458.6,106 530,106 c 36,0 57,1.7 92,7.5 50.2,8.4 93.8,20.6 100,28 1.1,1.3 1.2,12.9 0.6,67.3 -0.7,66.5 -0.4,78 3,108.7 3.4,31 12,78.5 15.1,83.4 1.5,2.3 1.7,2.4 12.7,1.8 6.1,-0.3 19.3,-1.9 29.4,-3.6 23.2,-3.9 40.9,-4.3 49.7,-1 11.2,4.2 18.5,13.8 18.5,24.5 0,12.4 -4.2,21.8 -14.9,32.8 -17.4,17.9 -39,32.6 -62.6,42.6 -5.5,2.3 -10.3,4.5 -10.7,4.9 -0.3,0.3 0.2,3.8 1.2,7.6 2.6,10.2 3.5,21.8 1.8,23.2 -0.7,0.6 -8.9,1.3 -19.3,1.6 -9.9,0.4 -21.6,1.3 -26,2.2 -15.7,3 -45.1,0.4 -70.4,-6.4 -41.3,-11 -60.7,-11.8 -78.3,-3.1 -3.4,1.7 -7.5,4.3 -9,5.7 -5,4.7 -7.7,16.1 -3.8,15.6 0.8,-0.1 5.3,-1.4 10,-2.8 5.8,-1.8 11.9,-2.8 19.2,-3.2 l 10.7,-0.6 0.6,3.9 c 1.4,9 2.9,12.6 7.1,17.3 2.4,2.7 5.9,5.6 7.8,6.5 4.3,2 15.7,2.1 19.5,0.2 3.6,-1.9 9.3,-8.3 11,-12.4 1.3,-3.1 1.5,-3.2 7.5,-3.2 3.4,0 7,0.6 7.9,1.3 0.9,0.6 3,5.2 4.7,10.1 3.5,10.4 5.1,12.6 9.5,12.6 2.6,0 3.7,-0.7 5.8,-3.9 1.4,-2.1 3.2,-6.1 4,-8.7 1.3,-4.6 1.7,-4.9 5.3,-5.6 2.1,-0.4 6.3,-0.7 9.1,-0.7 5.8,-0.1 5.4,-0.6 6.8,8.4 1.2,7.2 4.4,12.6 12.2,20.7 7.9,8.1 20.3,18.8 21.8,18.8 0.5,0 2.9,-1 5.4,-2.2 3.7,-1.8 6.3,-2.3 13.6,-2.3 7.8,0 9.6,0.3 14,2.7 15.3,8.1 25.3,30.3 22.6,49.9 l -1,7.3 4.5,6 c 14.4,19.1 22.4,40.3 24.3,64 1,11.9 0.7,14.1 -1.8,13 -4.4,-1.8 -11.5,-3.6 -19.6,-4.9 -12.4,-2 -49.6,-2 -65.1,0 -12,1.6 -48.5,10.4 -62.9,15.2 -7.3,2.5 -9.3,2.7 -23.5,2.7 -10.7,0 -18.4,-0.6 -25,-1.8 -13.4,-2.6 -18.6,-3 -19.4,-1.7 -1.7,2.6 7.1,13.4 15,18.4 8.3,5.1 15.1,6.9 28.7,7.5 8.6,0.3 14.8,0 18.5,-0.8 14.4,-3.2 25.9,-6.3 34.3,-9.1 11.6,-3.9 28.4,-7.4 45.5,-9.4 16,-2 63.3,-1.7 69.7,0.4 l 3.7,1.2 v 5.8 c 0,18.4 -9,45.4 -21,63.1 -4.5,6.7 -17.5,19.2 -25,24.1 -11.2,7.4 -23.6,12.6 -35.8,15 -8.2,1.6 -31.1,0.7 -41.2,-1.7 -15.1,-3.4 -37.6,-14.3 -54.5,-26.3 -10.1,-7.2 -28.9,-25.3 -37,-35.6 -13.3,-17 -19.9,-29.3 -24.9,-46.5 -11.9,-41 -3.1,-80.7 25.2,-113.5 3.9,-4.7 7.2,-8.6 7.2,-8.8 0,-0.2 -4.8,-0.7 -10.7,-1 -25,-1.4 -48.6,-11.1 -68.6,-28.1 -19.2,-16.5 -30.6,-37.8 -30.7,-57.4 0,-13.5 4.7,-30.2 12.6,-44.8 3.4,-6.3 6.5,-10.1 14.2,-17.5 19.1,-18.3 38.9,-25.9 67.4,-25.9 12.7,0 35.9,6.5 73.9,20.6 l 7.6,2.8 7.4,-2.2 c 15.1,-4.4 30.4,-5.3 51,-3 l 10.7,1.2 9.3,-4.2 c 11.5,-5.3 27.3,-14.6 37.4,-22.2 10.5,-7.9 21.3,-17.7 23.6,-21.4 2.6,-4.2 2.5,-9.8 -0.2,-12.2 -2,-1.8 -2.7,-1.8 -25.2,-0.1 -39.9,3 -68.1,2.1 -105.2,-3.4 -3.8,-0.6 -38,-8 -76,-16.4 -72.7,-16.2 -87,-19.1 -110.5,-22.4 -27,-3.8 -48.1,-5.1 -81.3,-5.1 -25.1,0 -31.8,-0.3 -31.5,-1.2 1.1,-3.4 48.1,-16.7 83.3,-23.7 51.9,-10.3 93,-13.7 156.5,-12.8 30.7,0.4 34.7,0.6 48,3.1 8,1.4 16.2,2.9 18.4,3.2 l 3.8,0.7 -0.6,-8.4 c -0.3,-4.6 -1.3,-20.5 -2.1,-35.4 -0.8,-14.8 -1.7,-29.2 -2,-32 -0.2,-2.7 -0.5,-28.4 -0.6,-57 -0.1,-28.6 -0.4,-53 -0.6,-54.1 -1.8,-8.7 -71.2,-23.9 -129.2,-28.4 -36.1,-2.7 -95,0.5 -135.1,7.5 -40.9,7.2 -86.1,20 -114,32.2 -12.1,5.4 -27.5,13.6 -37.2,19.9 L 271,195 v 4.7 c 0,16 7.9,80.8 17,140.8 2.6,17.2 4.7,35.6 6.5,56.6 0.5,5.6 0.3,7.8 -0.7,8.6 -0.7,0.6 -7.6,3.6 -15.3,6.6 -27.5,10.7 -44.3,20.6 -62.5,36.9 -9,8.1 -11,10.5 -14.9,17.8 -4,7.6 -4.5,9.2 -4.9,16.5 -0.3,7.2 -0.1,8.5 2.5,13.5 3.5,6.8 12.4,13.8 27.6,21.6 9.7,5 10.7,5.7 10.7,8.2 0,1.6 -1.6,11.3 -3.5,21.7 -11,58.8 -26.5,163.3 -26.5,178.3 0,4.1 0.3,4.4 11.3,13.8 48.7,41.8 117.4,93 174.8,130.4 50.6,33.1 111.2,74 112.4,76 0.9,1.5 -2.3,1.1 -10.5,-1.4 z M 690,679.2 c 0,-0.4 -2.3,-3 -5.1,-5.7 -8,-8 -15.7,-18.6 -17.9,-25 -2.7,-7.7 -2.7,-20.4 -0.1,-26 3.8,-8.2 12.3,-13.2 24.2,-14.2 3.8,-0.3 7.2,-1 7.5,-1.5 0.3,-0.5 -0.2,-1.8 -1.3,-3 -1.6,-1.9 -2.7,-2 -12.3,-1.6 -8.7,0.4 -11.4,0.9 -16.1,3.1 -13,6.2 -18.2,15.3 -18.3,31.7 -0.1,8.6 0.2,10.1 2.8,15.5 4.9,9.9 17,20.5 29.3,25.4 5.2,2.2 7.3,2.5 7.3,1.3 z m 76.6,-17.4 c 4.3,-4 8.5,-9.1 9.5,-11.3 3.4,-7.3 2,-15.2 -3.6,-20.7 -2.3,-2.3 -3.6,-2.8 -7.9,-2.8 -9.5,0 -12.6,4.4 -12.6,17.7 0,12.4 3,24.3 6.1,24.3 0.5,0 4.3,-3.3 8.5,-7.2 z m -34.8,5 c 0.7,-0.7 1.2,-3 1.2,-5.1 0,-6.2 -5.3,-15.1 -14.3,-24.1 l -7.9,-7.9 -6.9,0.5 c -8.5,0.6 -10.9,2.4 -10.9,8 0,5.8 2.1,9.7 8.2,15.5 6,5.6 15,10.6 23.1,12.8 6.6,1.7 6.1,1.7 7.5,0.3 z"
             id="path1" /><path
             d="m 322,647.7 c -21,-8 -38.2,-25.5 -48.6,-49.7 -14,-32.3 -10.7,-76 7.3,-96 10.1,-11.2 21.1,-15.9 39.3,-16.7 12.2,-0.6 12.7,-0.5 18.5,2.2 15.5,7.3 26.5,26 22.5,38 -1.4,4.2 -8.4,12.5 -10.6,12.5 -0.7,0 -3.7,-3.5 -6.5,-7.7 -5.9,-8.9 -11.2,-14.8 -15.1,-16.9 -3.9,-2.1 -14.4,-1.8 -19.5,0.6 -6,2.7 -13.9,10.9 -17.1,17.8 -2.4,5 -2.7,7 -2.7,15.4 0,5.4 0.5,10.2 1,10.7 0.8,0.8 3,-1.1 7.5,-6 7.6,-8.5 12,-10.8 20.8,-10.9 7.7,0 10.2,1.9 10.2,8.1 0,3.6 -0.7,4.8 -5.9,10.2 -8.5,8.9 -10.4,13.2 -10.9,24.5 -0.4,9.1 -0.3,9.5 3.1,16.5 5.8,11.8 16.7,22.1 29.2,27.8 2.6,1.2 3,2 3.3,5.9 0.5,6.2 -1.3,11.4 -4.9,14.4 -4.3,3.6 -10.1,3.4 -20.9,-0.7 z"
             id="path2" /><path
             d="m 735.6,580.1 -6.8,-6.9 3.8,-9.2 c 2.2,-5.2 4.8,-9.6 5.9,-10.3 1.1,-0.6 7.1,-1.3 13.3,-1.5 l 11.2,-0.5 v 3.5 c 0,4.1 -2.5,12.8 -5,17.9 -2.9,5.5 -10.9,13.9 -13.4,13.9 -1.3,0 -4.7,-2.6 -9,-6.9 z"
             id="path3" /></g><g
           fill="#c6a85b"
           id="g5"><path
             d="m 702.5,422.9 c -3.3,-0.5 -9.4,-1.4 -13.5,-2 -4.1,-0.6 -38.5,-8 -76.5,-16.4 -72.6,-16.2 -87,-19.1 -110.5,-22.4 -27,-3.8 -48.1,-5.1 -81.3,-5.1 -25.1,0 -31.8,-0.3 -31.5,-1.2 1.1,-3.4 48.1,-16.7 83.3,-23.7 51.9,-10.3 93,-13.7 156.5,-12.8 30.7,0.4 34.7,0.6 48,3.1 8,1.4 16.1,2.9 18.1,3.2 l 3.6,0.6 2.7,16.7 c 3.7,22.5 10.4,59 11.1,60.1 0.7,1.1 -1.6,1.1 -10,-0.1 z"
             id="path4" /><path
             d="m 693.3,174.5 c 0,-3.8 0.2,-5.3 0.4,-3.2 0.2,2 0.2,5.2 0,7 -0.2,1.7 -0.4,0.1 -0.4,-3.8 z"
             id="path5" /></g></g><text
         xml:space="preserve"
         style="font-style:normal;font-variant:normal;font-weight:normal;font-stretch:normal;font-size:107.659px;line-height:0.1;font-family:Geist;-inkscape-font-specification:Geist;text-align:start;writing-mode:lr-tb;direction:ltr;text-anchor:start;fill:#ffffff;stroke-width:2.52325"
         x="509.25"
         y="270.33658"
         id="text1"><tspan
           sodipodi:role="line"
           id="tspan1"
           x="509.25"
           y="270.33658"
           style="font-style:normal;font-variant:normal;font-weight:600;font-stretch:normal;font-family:Geist;-inkscape-font-specification:'Geist Semi-Bold';stroke-width:2.52325">Sir trading</tspan></text><text
         xml:space="preserve"
         style="font-style:normal;font-variant:normal;font-weight:600;font-stretch:normal;font-size:62.4202px;line-height:0.1;font-family:Geist;-inkscape-font-specification:'Geist Semi-Bold';text-align:start;writing-mode:lr-tb;direction:ltr;text-anchor:start;fill:#c6a85b;fill-opacity:1;stroke-width:1.46297"
         x="509.21329"
         y="383.61874"
         id="text2"><tspan
           sodipodi:role="line"
           x="509.21329"
           y="383.61874"
           id="tspan4"
           style="font-style:normal;font-variant:normal;font-weight:normal;font-stretch:normal;font-family:Geist;-inkscape-font-specification:Geist;fill:#c6a85b;fill-opacity:1;stroke-width:1.46297"><tspan
   style="fill:#ffffff;stroke-width:1.46297"
   id="tspan6">Pay </tspan>once.</tspan><tspan
           sodipodi:role="line"
           x="509.21329"
           y="389.86078"
           id="tspan3"
           style="stroke-width:1.46297" /></text><text
         xml:space="preserve"
         style="font-style:normal;font-variant:normal;font-weight:600;font-stretch:normal;font-size:62.4202px;line-height:0.1;font-family:Geist;-inkscape-font-specification:'Geist Semi-Bold';text-align:start;writing-mode:lr-tb;direction:ltr;text-anchor:start;fill:#ffffff;stroke-width:1.46297"
         x="509.21329"
         y="464.4548"
         id="text5"><tspan
           sodipodi:role="line"
           id="tspan5"
           x="509.21329"
           y="464.4548"
           style="font-style:normal;font-variant:normal;font-weight:normal;font-stretch:normal;font-family:Geist;-inkscape-font-specification:Geist;stroke-width:1.46297">Keep <tspan
   style="fill:#c6a85b;fill-opacity:1;stroke-width:1.46297"
   id="tspan7">the upside.</tspan></tspan></text></g></g></svg>
