<svg width="1162" height="378" viewBox="0 0 1162 378" fill="none" xmlns="http://www.w3.org/2000/svg">
<path d="M121.004 303.179C100.141 300.431 81.4278 294.797 74.045 289.041C66.1934 282.92 66.1862 282.888 66.5187 255.986C66.788 234.201 66.9933 231.936 68.7313 231.577C70.4071 231.23 70.6471 232.204 70.6471 239.356C70.6471 245.816 71.1183 248.176 72.8933 250.605C77.3238 256.667 93.0442 262.821 114.436 266.868C125.97 269.05 181.654 269.029 194.897 266.836C214.107 263.657 229.819 257.128 235.384 250.01C238.066 246.579 238.317 245.532 237.725 240.232C237.361 236.967 237.058 233.046 237.053 231.519C237.047 229.742 236.551 228.974 235.675 229.386C218.743 237.353 213.111 239.098 192.708 242.695C176.34 245.58 132.37 245.568 115.572 242.672C99.0457 239.824 87.6354 236.474 78.5812 231.811C67.2847 225.995 66.9588 225.23 66.0992 202.54C65.4646 185.788 65.5972 183.302 67.2605 180.758C70.6178 175.625 72.1658 176.157 71.3985 182.182C70.562 188.75 72.4346 191.765 80.1254 196.23C106.608 211.605 176.792 214.256 215.54 201.345C225.999 197.859 232.171 194.269 235.159 189.931C237.19 186.982 237.211 186.591 235.535 182.975C232.088 175.538 234.228 172.76 239.245 178.159C242.487 181.649 242.517 181.801 242.517 194.838V207.996L276.301 207.195L309.043 172.436H360.62C388.988 172.436 412.198 172.237 412.198 171.992C412.198 171.748 408.425 167.579 403.813 162.726C397.875 156.478 395.629 153.342 396.116 151.977C396.494 150.917 397.508 150.049 398.37 150.049C400.289 150.049 422.083 172.471 422.064 174.425C422.042 176.695 399.941 199.536 397.767 199.536C393.887 199.536 395.836 195.286 403.44 187.165C407.655 182.663 411.103 178.701 411.103 178.359C411.104 178.017 388.566 177.895 361.02 178.086L310.937 178.434L296.158 194.16C288.03 202.81 280.303 210.474 278.988 211.192C277.62 211.939 270.772 212.497 262.978 212.497C245.802 212.497 242.517 213.141 242.517 216.506C242.517 217.901 241.789 220.162 240.898 221.53C239.466 223.731 239.473 224.436 240.959 227.641C242.347 230.637 242.58 235.685 242.304 256.777L241.97 282.288L237.321 286.726C231.635 292.155 221.05 296.544 204.202 300.461C192.821 303.107 188.619 303.429 160.414 303.822C143.254 304.061 125.52 303.774 121.004 303.179ZM197.327 296.202C220.326 291.676 234.481 285.15 237.046 277.889C238.199 274.622 238.364 256.941 237.235 257.509C236.829 257.714 233.408 259.613 229.634 261.73C198.031 279.455 109.945 279.002 77.7627 260.948C74.7522 259.259 71.9197 257.698 71.4681 257.478C71.0165 257.258 70.6471 261.611 70.6471 267.151C70.6471 276.657 70.8313 277.449 73.9232 281.24C79.9693 288.651 99.2588 295.122 123.741 297.952C143.999 300.294 181.007 299.414 197.327 296.202ZM113.341 285.635C113.341 280.467 113.633 279.662 115.509 279.662C119.79 279.662 120.068 290.58 115.804 291.232C113.528 291.58 113.341 291.156 113.341 285.635ZM197.634 236.259C216.419 232.611 226.817 228.623 233.628 222.454C237.036 219.368 237.043 219.337 237.043 207.478V195.595L234.58 198.019C219.152 213.203 147.499 219.77 103.149 210.065C91.2049 207.451 79.7702 203.176 75.0547 199.562C73.3477 198.254 71.6577 197.184 71.2991 197.184C70.4331 197.184 70.4571 216.489 71.3261 218.926C73.3121 224.497 89.2454 231.904 106.773 235.405C124.001 238.846 132.391 239.437 158.771 239.07C179.448 238.782 187.726 238.183 197.634 236.259ZM113.557 225.178C113.802 220.615 114.35 218.909 115.657 218.642C116.878 218.393 117.638 219.426 118.114 221.986C119.101 227.301 117.907 231.353 115.354 231.353C113.476 231.353 113.265 230.631 113.557 225.178ZM113.557 255.895C113.739 252.543 114.471 249.595 115.183 249.343C117.182 248.634 118.564 252.678 117.995 257.57C117.599 260.969 116.99 261.988 115.353 261.988C113.479 261.988 113.266 261.265 113.557 255.895ZM133.259 198.158C133.545 192.787 133.909 191.882 135.783 191.882C137.68 191.882 137.972 192.667 137.972 197.773C137.972 203.027 137.699 203.706 135.449 204.049C133.051 204.415 132.942 204.122 133.259 198.158ZM135.235 186.976C106.295 183.924 90.9437 180.4 77.8841 173.813C72.8119 171.255 68.1233 168.078 67.4651 166.754C66.7422 165.301 66.2682 156.885 66.2682 145.502C66.2682 130.092 66.576 126.325 67.9565 124.84C69.4589 123.222 69.4648 122.727 68.0095 120.336C66.5398 117.922 65.8427 102.383 66.215 80.3323C66.2471 78.4304 67.622 75.7256 69.6857 73.5045C80.899 61.4353 112.837 54.2711 155.487 54.2578C197.422 54.244 229.021 61.7175 239.058 74.0212L242.517 78.2617V96.7967C242.517 112.497 242.211 115.945 240.517 119.346C238.579 123.234 238.579 123.428 240.517 125.514C242.272 127.403 242.517 129.783 242.517 144.973C242.517 160.711 242.305 162.612 240.181 165.949C235.647 173.071 226.079 177.759 207.486 181.969C187.198 186.563 153.472 188.9 135.235 186.976ZM198.715 178.384C220.419 174.003 234.852 167.451 237.154 160.935C238.255 157.816 238.491 144.166 237.492 141.363C236.946 139.833 235.961 140.079 231.197 142.931C223.351 147.628 209.964 151.909 195.289 154.413C177.368 157.47 129.868 157.437 112.826 154.355C97.2001 151.529 83.5682 147.245 76.3943 142.906L70.6471 139.429V151.039C70.6471 164.289 70.695 164.378 80.4995 169.291C90.5363 174.32 106.139 178.074 129.762 181.142C131.869 181.416 145.416 181.478 159.866 181.281C181.112 180.991 188.546 180.437 198.715 178.384ZM75.7936 162.27C75.3713 161.815 75.0259 158.881 75.0259 155.748C75.0259 150.883 75.3376 150.054 77.1657 150.054C80.8414 150.054 81.8562 161.998 78.2441 162.747C77.3185 162.939 76.2158 162.724 75.7936 162.27ZM191.613 149.618C219.396 144.295 238.783 135.095 236.386 128.371C235.99 127.261 235.114 126.612 234.439 126.93C209.592 138.605 185.621 142.538 145.759 141.479C127.714 141 118.347 140.193 108.967 138.309C95.5052 135.605 82.0896 131.147 76.5388 127.533C71.9513 124.546 71.5472 124.687 71.9461 129.139C72.7443 138.05 93.8133 146.575 125.383 150.761C139.759 152.667 179.254 151.986 191.613 149.618ZM192.708 134.127C211.738 131.049 224.789 126.602 232.55 120.551L237.043 117.048V94.4832L233.486 96.8417C218.16 107.001 181.397 113.351 146.182 111.921C115.057 110.656 87.2491 104.799 75.6071 97.0543C73.6401 95.7459 71.7194 94.6753 71.3389 94.6753C70.9584 94.6753 70.6471 99.1107 70.6471 104.532C70.6471 112.446 71.0587 114.951 72.7361 117.246C76.0837 121.827 84.8618 126.258 97.8635 129.929C108.353 132.891 115.249 134.005 137.972 136.408C146.684 137.329 182.012 135.857 192.708 134.127ZM114.071 126.881C112.753 125.462 113.281 116.103 114.709 115.567C118.378 114.189 119.824 118.189 118.124 125.016C117.483 127.59 115.554 128.478 114.071 126.881ZM184.267 105.216C214.227 101.717 237.043 92.2084 237.043 83.2217C237.043 81.3357 235.653 78.8139 233.291 76.4162C215.152 58.0028 134.132 53.3495 90.4236 68.2106C85.61 69.8473 79.5605 72.9194 76.9803 75.0375C73.0775 78.2416 72.2891 79.5616 72.2891 82.8927C72.2891 86.2239 73.0775 87.544 76.9803 90.7479C84.319 96.7725 103.234 102.395 125.383 105.136C137.309 106.612 171.913 106.659 184.267 105.216ZM153.572 96.9673C152.518 96.2903 151.656 95.0484 151.656 94.2073C151.656 93.0869 148.275 92.4702 139.013 91.9008C123.394 90.9407 118.814 89.1857 118.814 84.1614C118.814 80.0637 121.912 77.8027 129.345 76.4741C132.651 75.8833 134.179 74.9022 135.069 72.8C135.881 70.8826 137.184 69.9319 139.001 69.9319C140.495 69.9319 142.726 68.7679 143.957 67.3453C146.16 64.8007 146.28 64.7913 151.389 66.762C154.245 67.8638 157.875 68.7627 159.456 68.7595C164.549 68.7503 169.171 70.1847 169.171 71.7771C169.171 74.4275 167.458 74.6924 158.748 73.3886C149.238 71.9649 141.803 72.8101 141.803 75.3152C141.803 77.5872 144.335 77.9701 163.278 78.5621C181.854 79.1425 185.928 80.3561 186.479 85.4733C186.931 89.6761 184.453 90.9755 174.208 91.9076C166.957 92.5673 165.96 92.9444 165.669 95.1378C165.397 97.1903 164.485 97.671 160.414 97.9095C157.704 98.068 154.625 97.6442 153.572 96.9673ZM160.414 92.3188C160.414 90.8426 159.252 90.8426 157.129 92.3188C155.802 93.2425 155.959 93.4644 157.95 93.479C159.305 93.4882 160.414 92.9669 160.414 92.3188ZM179.524 86.5089C180.805 84.2794 176.938 83.5172 157.992 82.2649C142.282 81.2264 138.206 80.5959 136.507 78.9415C134.706 77.1874 134.323 77.1468 133.786 78.6532C133.442 79.6174 131.411 80.7597 129.272 81.1917C123.96 82.2641 124.354 84.8628 130.035 86.2323C136.141 87.7038 178.702 87.9418 179.524 86.5089Z" fill="url(#paint0_linear_2580_84)"/>
<path d="M433.66 288.987C433.271 288.357 433.549 287.122 434.279 286.244C435.282 285.035 438.348 284.646 446.892 284.646H458.18L458.003 214.157C457.863 158.354 458.142 141.959 459.339 135.465C466.293 97.753 491.114 65.85 526.065 49.7026C541.439 42.5997 555.8 39.5878 574.669 39.5088C592.817 39.4329 601.207 40.7845 616.359 46.2247C634.132 52.6064 647.006 60.9527 660.326 74.7302C670.408 85.1587 676.55 94.0819 682.763 107.329C689.689 122.095 692.242 133.14 692.874 151.073L693.405 166.158H674.032C654.925 166.158 654.621 166.197 651.965 168.851C648.104 172.712 648.201 179.419 652.163 182.535C654.81 184.618 656.512 184.809 672.369 184.809C681.893 184.809 690.466 185.109 691.421 185.475C692.968 186.069 693.156 191.494 693.156 235.394V284.646H703.993C712.142 284.646 715.159 285.042 716.156 286.244C716.885 287.122 717.163 288.357 716.774 288.987C716.288 289.772 671.874 290.132 575.217 290.132C478.561 290.132 434.146 289.773 433.66 288.987ZM630.073 284.69L652.015 284.646L651.564 190.139L648.852 188.005C642.639 183.118 642.419 171.235 648.416 164.405C651.628 160.747 651.789 160.122 651.577 152.109C651.326 142.646 650.34 138.108 646.285 127.759C638.257 107.271 617.635 89.1455 595.503 83.1245C585.499 80.4028 564.592 80.4577 554.921 83.2308C542.456 86.8053 531.192 93.436 522.055 102.577C512.514 112.124 506.739 121.35 502.517 133.793L499.539 142.57L498.864 284.607L526.07 284.9C541.033 285.062 565.617 285.09 580.703 284.964C595.788 284.837 618.004 284.715 630.073 284.69ZM557.663 237.608C555.406 237.128 554.266 236.162 554.033 234.536C553.847 233.231 554.993 224.437 556.581 214.994L559.468 197.824L554.543 192.559C546.988 184.481 545.017 172.816 549.527 162.867C552.449 156.423 555.357 153.411 562.052 149.895C569.389 146.042 581.713 145.79 588.383 149.357C598.417 154.723 603.58 163.185 603.654 174.387C603.71 183.01 602.04 187.402 596.035 194.418L592.308 198.773L594.997 214.556C598.278 233.806 598.333 235.962 595.586 237.432C593.304 238.653 563.234 238.793 557.663 237.608ZM591.554 229.791C591.487 228.282 590.28 219.981 588.871 211.344L586.309 195.64L590.411 191.882C595.072 187.612 598.745 180.38 598.781 175.405C598.88 161.577 586.285 150.457 572.644 152.326C552.828 155.043 545.963 178.082 561.029 191.31C565.608 195.331 565.637 195.968 562.117 216.039C560.645 224.437 559.695 231.721 560.006 232.225C560.318 232.729 567.57 233.005 576.123 232.837L591.674 232.533L591.554 229.791ZM493.491 217.448C493.496 177.722 493.95 147.474 494.601 143.459C496.123 134.085 500.309 122.167 504.65 114.852C512.696 101.296 528.663 87.4985 543.401 81.3674C565.438 72.1999 591.978 73.2433 613.557 84.1257C638.635 96.7723 655.199 121.849 656.874 149.702L657.5 160.124L687.671 160.735V151.332C687.671 112.792 662.46 74.7332 624.091 55.3529C589.122 37.6897 541.323 42.2149 509.083 66.2408C483.022 85.6621 467.514 112.398 463.854 144.217C463.264 149.346 462.777 183.04 462.773 219.094L462.764 284.646H493.483L493.491 217.448ZM687.671 190.295H656.952V284.646H687.671V190.295ZM822.25 198.34C820.37 196.461 822.105 193.494 829.198 186.455C833.422 182.263 836.878 178.456 836.878 177.993C836.878 177.531 814.785 177.024 787.782 176.867C745 176.618 738.687 176.369 738.687 174.935C738.687 173.501 745.061 173.253 788.331 173.004C815.635 172.847 837.975 172.528 837.975 172.295C837.975 172.062 834.272 168.28 829.746 163.892C821.704 156.094 819.504 151.896 823.459 151.896C825.835 151.896 846.752 172.662 846.752 175.021C846.752 176.486 824.922 199.072 823.506 199.072C823.217 199.072 822.652 198.742 822.25 198.34Z" fill="url(#paint1_linear_2580_84)"/>
<path d="M980.18 61C1042.59 61 1093.18 111.592 1093.18 174C1093.18 236.408 1042.59 287 980.18 287C917.772 287 867.18 236.408 867.18 174C867.18 111.592 917.772 61 980.18 61Z" stroke="url(#paint2_linear_2580_84)" stroke-width="6"/>
<path d="M966.254 182.151L968.578 180.254L966.931 178.237L964.702 179.584L966.254 182.151ZM985.704 205.973L983.38 207.871L985.523 210.495L987.869 208.05L985.704 205.973ZM1045.3 146.938C1045.26 145.282 1043.89 143.967 1042.24 144.001L1015.24 144.556C1013.59 144.59 1012.27 145.961 1012.31 147.617C1012.34 149.274 1013.71 150.589 1015.37 150.555L1039.36 150.061L1039.86 174.056C1039.89 175.713 1041.26 177.028 1042.92 176.994C1044.57 176.96 1045.89 175.589 1045.85 173.933L1045.3 146.938ZM908.68 216.957L910.232 219.524L967.806 184.719L966.254 182.151L964.702 179.584L907.128 214.389L908.68 216.957ZM966.254 182.151L963.93 184.049L983.38 207.871L985.704 205.973L988.028 204.076L968.578 180.254L966.254 182.151ZM985.704 205.973L987.869 208.05L1044.46 149.077L1042.3 147L1040.13 144.923L983.54 203.896L985.704 205.973Z" fill="url(#paint3_linear_2580_84)"/>
<path d="M96.2159 354.58H91.9659C91.8447 353.883 91.6212 353.265 91.2955 352.727C90.9697 352.182 90.5644 351.72 90.0795 351.341C89.5947 350.962 89.0417 350.678 88.4205 350.489C87.8068 350.292 87.1439 350.193 86.4318 350.193C85.1667 350.193 84.0455 350.511 83.0682 351.148C82.0909 351.777 81.3258 352.701 80.7727 353.92C80.2197 355.133 79.9432 356.614 79.9432 358.364C79.9432 360.144 80.2197 361.644 80.7727 362.864C81.3333 364.076 82.0985 364.992 83.0682 365.614C84.0455 366.227 85.1629 366.534 86.4205 366.534C87.1174 366.534 87.7689 366.443 88.375 366.261C88.9886 366.072 89.5379 365.795 90.0227 365.432C90.5152 365.068 90.928 364.621 91.2614 364.091C91.6023 363.561 91.8371 362.955 91.9659 362.273L96.2159 362.295C96.0568 363.402 95.7121 364.439 95.1818 365.409C94.6591 366.379 93.9735 367.235 93.125 367.977C92.2765 368.712 91.2841 369.288 90.1477 369.705C89.0114 370.114 87.75 370.318 86.3636 370.318C84.3182 370.318 82.4924 369.845 80.8864 368.898C79.2803 367.951 78.0152 366.583 77.0909 364.795C76.1667 363.008 75.7045 360.864 75.7045 358.364C75.7045 355.856 76.1705 353.712 77.1023 351.932C78.0341 350.144 79.303 348.777 80.9091 347.83C82.5152 346.883 84.3333 346.409 86.3636 346.409C87.6591 346.409 88.8636 346.591 89.9773 346.955C91.0909 347.318 92.0833 347.852 92.9545 348.557C93.8258 349.254 94.5417 350.11 95.1023 351.125C95.6705 352.133 96.0417 353.284 96.2159 354.58ZM107.509 370.341C105.804 370.341 104.327 369.966 103.077 369.216C101.827 368.466 100.857 367.417 100.168 366.068C99.4858 364.72 99.1449 363.144 99.1449 361.341C99.1449 359.538 99.4858 357.958 100.168 356.602C100.857 355.246 101.827 354.193 103.077 353.443C104.327 352.693 105.804 352.318 107.509 352.318C109.213 352.318 110.69 352.693 111.94 353.443C113.19 354.193 114.156 355.246 114.838 356.602C115.527 357.958 115.872 359.538 115.872 361.341C115.872 363.144 115.527 364.72 114.838 366.068C114.156 367.417 113.19 368.466 111.94 369.216C110.69 369.966 109.213 370.341 107.509 370.341ZM107.531 367.045C108.455 367.045 109.228 366.792 109.849 366.284C110.471 365.769 110.933 365.08 111.236 364.216C111.546 363.352 111.702 362.39 111.702 361.33C111.702 360.261 111.546 359.295 111.236 358.432C110.933 357.561 110.471 356.867 109.849 356.352C109.228 355.837 108.455 355.58 107.531 355.58C106.584 355.58 105.796 355.837 105.168 356.352C104.546 356.867 104.08 357.561 103.77 358.432C103.467 359.295 103.315 360.261 103.315 361.33C103.315 362.39 103.467 363.352 103.77 364.216C104.08 365.08 104.546 365.769 105.168 366.284C105.796 366.792 106.584 367.045 107.531 367.045ZM123.477 346.727V370H119.364V346.727H123.477ZM131.821 346.727V370H127.707V346.727H131.821ZM141.074 370.352C139.968 370.352 138.972 370.155 138.085 369.761C137.206 369.36 136.509 368.769 135.994 367.989C135.487 367.208 135.233 366.246 135.233 365.102C135.233 364.117 135.415 363.303 135.778 362.659C136.142 362.015 136.638 361.5 137.267 361.114C137.896 360.727 138.604 360.436 139.392 360.239C140.188 360.034 141.009 359.886 141.858 359.795C142.881 359.689 143.71 359.595 144.347 359.511C144.983 359.42 145.445 359.284 145.733 359.102C146.028 358.913 146.176 358.621 146.176 358.227V358.159C146.176 357.303 145.922 356.64 145.415 356.17C144.907 355.701 144.176 355.466 143.222 355.466C142.214 355.466 141.415 355.686 140.824 356.125C140.241 356.564 139.847 357.083 139.642 357.682L135.801 357.136C136.104 356.076 136.604 355.189 137.301 354.477C137.998 353.758 138.85 353.22 139.858 352.864C140.866 352.5 141.979 352.318 143.199 352.318C144.04 352.318 144.877 352.417 145.71 352.614C146.544 352.811 147.305 353.136 147.994 353.591C148.684 354.038 149.237 354.648 149.653 355.42C150.078 356.193 150.29 357.159 150.29 358.318V370H146.335V367.602H146.199C145.949 368.087 145.597 368.542 145.142 368.966C144.695 369.383 144.131 369.72 143.449 369.977C142.775 370.227 141.983 370.352 141.074 370.352ZM142.142 367.33C142.968 367.33 143.684 367.167 144.29 366.841C144.896 366.508 145.362 366.068 145.688 365.523C146.021 364.977 146.188 364.383 146.188 363.739V361.682C146.059 361.788 145.839 361.886 145.528 361.977C145.225 362.068 144.884 362.148 144.506 362.216C144.127 362.284 143.752 362.345 143.381 362.398C143.009 362.451 142.688 362.496 142.415 362.534C141.801 362.617 141.252 362.754 140.767 362.943C140.282 363.133 139.9 363.398 139.619 363.739C139.339 364.072 139.199 364.504 139.199 365.034C139.199 365.792 139.475 366.364 140.028 366.75C140.581 367.136 141.286 367.33 142.142 367.33ZM163.142 352.545V355.727H153.108V352.545H163.142ZM155.585 348.364H159.699V364.75C159.699 365.303 159.782 365.727 159.949 366.023C160.123 366.311 160.35 366.508 160.631 366.614C160.911 366.72 161.222 366.773 161.562 366.773C161.82 366.773 162.055 366.754 162.267 366.716C162.487 366.678 162.653 366.644 162.767 366.614L163.46 369.83C163.241 369.905 162.926 369.989 162.517 370.08C162.116 370.17 161.623 370.223 161.04 370.239C160.009 370.269 159.081 370.114 158.256 369.773C157.43 369.424 156.775 368.886 156.29 368.159C155.813 367.432 155.578 366.523 155.585 365.432V348.364ZM174.122 370.341C172.372 370.341 170.861 369.977 169.588 369.25C168.323 368.515 167.349 367.477 166.668 366.136C165.986 364.788 165.645 363.201 165.645 361.375C165.645 359.58 165.986 358.004 166.668 356.648C167.357 355.284 168.319 354.223 169.554 353.466C170.789 352.701 172.24 352.318 173.906 352.318C174.982 352.318 175.997 352.492 176.952 352.841C177.914 353.182 178.762 353.712 179.497 354.432C180.24 355.152 180.823 356.068 181.247 357.182C181.671 358.288 181.884 359.606 181.884 361.136V362.398H167.577V359.625H177.94C177.933 358.837 177.762 358.136 177.429 357.523C177.096 356.902 176.63 356.413 176.031 356.057C175.44 355.701 174.751 355.523 173.963 355.523C173.122 355.523 172.384 355.727 171.747 356.136C171.111 356.538 170.615 357.068 170.259 357.727C169.91 358.379 169.732 359.095 169.724 359.875V362.295C169.724 363.311 169.91 364.182 170.281 364.909C170.652 365.629 171.171 366.182 171.838 366.568C172.505 366.947 173.285 367.136 174.179 367.136C174.777 367.136 175.319 367.053 175.804 366.886C176.289 366.712 176.709 366.458 177.065 366.125C177.421 365.792 177.69 365.379 177.872 364.886L181.713 365.318C181.471 366.333 181.009 367.22 180.327 367.977C179.652 368.727 178.789 369.311 177.736 369.727C176.683 370.136 175.478 370.341 174.122 370.341ZM185.364 370V352.545H189.352V355.455H189.534C189.852 354.447 190.398 353.67 191.17 353.125C191.951 352.572 192.841 352.295 193.841 352.295C194.068 352.295 194.322 352.307 194.602 352.33C194.89 352.345 195.129 352.371 195.318 352.409V356.193C195.144 356.133 194.867 356.08 194.489 356.034C194.117 355.981 193.758 355.955 193.409 355.955C192.659 355.955 191.985 356.117 191.386 356.443C190.795 356.761 190.33 357.205 189.989 357.773C189.648 358.341 189.477 358.996 189.477 359.739V370H185.364ZM202.761 370.352C201.655 370.352 200.659 370.155 199.773 369.761C198.894 369.36 198.197 368.769 197.682 367.989C197.174 367.208 196.92 366.246 196.92 365.102C196.92 364.117 197.102 363.303 197.466 362.659C197.83 362.015 198.326 361.5 198.955 361.114C199.583 360.727 200.292 360.436 201.08 360.239C201.875 360.034 202.697 359.886 203.545 359.795C204.568 359.689 205.398 359.595 206.034 359.511C206.67 359.42 207.133 359.284 207.42 359.102C207.716 358.913 207.864 358.621 207.864 358.227V358.159C207.864 357.303 207.61 356.64 207.102 356.17C206.595 355.701 205.864 355.466 204.909 355.466C203.902 355.466 203.102 355.686 202.511 356.125C201.928 356.564 201.534 357.083 201.33 357.682L197.489 357.136C197.792 356.076 198.292 355.189 198.989 354.477C199.686 353.758 200.538 353.22 201.545 352.864C202.553 352.5 203.667 352.318 204.886 352.318C205.727 352.318 206.564 352.417 207.398 352.614C208.231 352.811 208.992 353.136 209.682 353.591C210.371 354.038 210.924 354.648 211.341 355.42C211.765 356.193 211.977 357.159 211.977 358.318V370H208.023V367.602H207.886C207.636 368.087 207.284 368.542 206.83 368.966C206.383 369.383 205.818 369.72 205.136 369.977C204.462 370.227 203.67 370.352 202.761 370.352ZM203.83 367.33C204.655 367.33 205.371 367.167 205.977 366.841C206.583 366.508 207.049 366.068 207.375 365.523C207.708 364.977 207.875 364.383 207.875 363.739V361.682C207.746 361.788 207.527 361.886 207.216 361.977C206.913 362.068 206.572 362.148 206.193 362.216C205.814 362.284 205.439 362.345 205.068 362.398C204.697 362.451 204.375 362.496 204.102 362.534C203.489 362.617 202.939 362.754 202.455 362.943C201.97 363.133 201.587 363.398 201.307 363.739C201.027 364.072 200.886 364.504 200.886 365.034C200.886 365.792 201.163 366.364 201.716 366.75C202.269 367.136 202.973 367.33 203.83 367.33ZM220.227 346.727V370H216.114V346.727H220.227Z" fill="black"/>
<path d="M534.409 346.727L540.466 365.045H540.705L546.75 346.727H551.386L543.182 370H537.977L529.784 346.727H534.409ZM557.48 370.352C556.374 370.352 555.378 370.155 554.491 369.761C553.613 369.36 552.916 368.769 552.401 367.989C551.893 367.208 551.639 366.246 551.639 365.102C551.639 364.117 551.821 363.303 552.185 362.659C552.548 362.015 553.045 361.5 553.673 361.114C554.302 360.727 555.01 360.436 555.798 360.239C556.594 360.034 557.416 359.886 558.264 359.795C559.287 359.689 560.116 359.595 560.753 359.511C561.389 359.42 561.851 359.284 562.139 359.102C562.435 358.913 562.582 358.621 562.582 358.227V358.159C562.582 357.303 562.329 356.64 561.821 356.17C561.313 355.701 560.582 355.466 559.628 355.466C558.62 355.466 557.821 355.686 557.23 356.125C556.647 356.564 556.253 357.083 556.048 357.682L552.207 357.136C552.51 356.076 553.01 355.189 553.707 354.477C554.404 353.758 555.257 353.22 556.264 352.864C557.272 352.5 558.385 352.318 559.605 352.318C560.446 352.318 561.283 352.417 562.116 352.614C562.95 352.811 563.711 353.136 564.401 353.591C565.09 354.038 565.643 354.648 566.06 355.42C566.484 356.193 566.696 357.159 566.696 358.318V370H562.741V367.602H562.605C562.355 368.087 562.003 368.542 561.548 368.966C561.101 369.383 560.537 369.72 559.855 369.977C559.181 370.227 558.389 370.352 557.48 370.352ZM558.548 367.33C559.374 367.33 560.09 367.167 560.696 366.841C561.302 366.508 561.768 366.068 562.094 365.523C562.427 364.977 562.594 364.383 562.594 363.739V361.682C562.465 361.788 562.245 361.886 561.935 361.977C561.632 362.068 561.291 362.148 560.912 362.216C560.533 362.284 560.158 362.345 559.787 362.398C559.416 362.451 559.094 362.496 558.821 362.534C558.207 362.617 557.658 362.754 557.173 362.943C556.688 363.133 556.306 363.398 556.026 363.739C555.745 364.072 555.605 364.504 555.605 365.034C555.605 365.792 555.882 366.364 556.435 366.75C556.988 367.136 557.692 367.33 558.548 367.33ZM581.957 362.659V352.545H586.071V370H582.082V366.898H581.901C581.507 367.875 580.859 368.674 579.957 369.295C579.063 369.917 577.961 370.227 576.651 370.227C575.507 370.227 574.495 369.973 573.616 369.466C572.745 368.951 572.063 368.205 571.571 367.227C571.079 366.242 570.832 365.053 570.832 363.659V352.545H574.946V363.023C574.946 364.129 575.249 365.008 575.855 365.659C576.461 366.311 577.257 366.636 578.241 366.636C578.848 366.636 579.435 366.489 580.003 366.193C580.571 365.898 581.037 365.458 581.401 364.875C581.772 364.284 581.957 363.545 581.957 362.659ZM594.415 346.727V370H590.301V346.727H594.415ZM607.361 352.545V355.727H597.327V352.545H607.361ZM599.804 348.364H603.918V364.75C603.918 365.303 604.001 365.727 604.168 366.023C604.342 366.311 604.569 366.508 604.849 366.614C605.13 366.72 605.44 366.773 605.781 366.773C606.039 366.773 606.274 366.754 606.486 366.716C606.705 366.678 606.872 366.644 606.986 366.614L607.679 369.83C607.459 369.905 607.145 369.989 606.736 370.08C606.334 370.17 605.842 370.223 605.259 370.239C604.228 370.269 603.3 370.114 602.474 369.773C601.649 369.424 600.993 368.886 600.509 368.159C600.031 367.432 599.796 366.523 599.804 365.432V348.364Z" fill="black"/>
<path d="M846.295 370V346.727H850.511V366.466H860.761V370H846.295ZM871.966 370.341C870.216 370.341 868.705 369.977 867.432 369.25C866.167 368.515 865.193 367.477 864.511 366.136C863.83 364.788 863.489 363.201 863.489 361.375C863.489 359.58 863.83 358.004 864.511 356.648C865.201 355.284 866.163 354.223 867.398 353.466C868.633 352.701 870.083 352.318 871.75 352.318C872.826 352.318 873.841 352.492 874.795 352.841C875.758 353.182 876.606 353.712 877.341 354.432C878.083 355.152 878.667 356.068 879.091 357.182C879.515 358.288 879.727 359.606 879.727 361.136V362.398H865.42V359.625H875.784C875.777 358.837 875.606 358.136 875.273 357.523C874.939 356.902 874.473 356.413 873.875 356.057C873.284 355.701 872.595 355.523 871.807 355.523C870.966 355.523 870.227 355.727 869.591 356.136C868.955 356.538 868.458 357.068 868.102 357.727C867.754 358.379 867.576 359.095 867.568 359.875V362.295C867.568 363.311 867.754 364.182 868.125 364.909C868.496 365.629 869.015 366.182 869.682 366.568C870.348 366.947 871.129 367.136 872.023 367.136C872.621 367.136 873.163 367.053 873.648 366.886C874.133 366.712 874.553 366.458 874.909 366.125C875.265 365.792 875.534 365.379 875.716 364.886L879.557 365.318C879.314 366.333 878.852 367.22 878.17 367.977C877.496 368.727 876.633 369.311 875.58 369.727C874.527 370.136 873.322 370.341 871.966 370.341ZM898.298 352.545L892.082 370H887.537L881.321 352.545H885.707L889.719 365.511H889.901L893.923 352.545H898.298ZM908.278 370.341C906.528 370.341 905.017 369.977 903.744 369.25C902.479 368.515 901.506 367.477 900.824 366.136C900.142 364.788 899.801 363.201 899.801 361.375C899.801 359.58 900.142 358.004 900.824 356.648C901.513 355.284 902.475 354.223 903.71 353.466C904.945 352.701 906.396 352.318 908.062 352.318C909.138 352.318 910.153 352.492 911.108 352.841C912.07 353.182 912.919 353.712 913.653 354.432C914.396 355.152 914.979 356.068 915.403 357.182C915.828 358.288 916.04 359.606 916.04 361.136V362.398H901.733V359.625H912.097C912.089 358.837 911.919 358.136 911.585 357.523C911.252 356.902 910.786 356.413 910.188 356.057C909.597 355.701 908.907 355.523 908.119 355.523C907.278 355.523 906.54 355.727 905.903 356.136C905.267 356.538 904.771 357.068 904.415 357.727C904.066 358.379 903.888 359.095 903.881 359.875V362.295C903.881 363.311 904.066 364.182 904.438 364.909C904.809 365.629 905.328 366.182 905.994 366.568C906.661 366.947 907.441 367.136 908.335 367.136C908.934 367.136 909.475 367.053 909.96 366.886C910.445 366.712 910.866 366.458 911.222 366.125C911.578 365.792 911.847 365.379 912.028 364.886L915.869 365.318C915.627 366.333 915.165 367.22 914.483 367.977C913.809 368.727 912.945 369.311 911.892 369.727C910.839 370.136 909.634 370.341 908.278 370.341ZM919.52 370V352.545H923.509V355.455H923.69C924.009 354.447 924.554 353.67 925.327 353.125C926.107 352.572 926.997 352.295 927.997 352.295C928.224 352.295 928.478 352.307 928.759 352.33C929.046 352.345 929.285 352.371 929.474 352.409V356.193C929.3 356.133 929.024 356.08 928.645 356.034C928.274 355.981 927.914 355.955 927.565 355.955C926.815 355.955 926.141 356.117 925.543 356.443C924.952 356.761 924.486 357.205 924.145 357.773C923.804 358.341 923.634 358.996 923.634 359.739V370H919.52ZM936.918 370.352C935.812 370.352 934.815 370.155 933.929 369.761C933.05 369.36 932.353 368.769 931.838 367.989C931.33 367.208 931.077 366.246 931.077 365.102C931.077 364.117 931.259 363.303 931.622 362.659C931.986 362.015 932.482 361.5 933.111 361.114C933.74 360.727 934.448 360.436 935.236 360.239C936.031 360.034 936.853 359.886 937.702 359.795C938.724 359.689 939.554 359.595 940.19 359.511C940.827 359.42 941.289 359.284 941.577 359.102C941.872 358.913 942.02 358.621 942.02 358.227V358.159C942.02 357.303 941.766 356.64 941.259 356.17C940.751 355.701 940.02 355.466 939.065 355.466C938.058 355.466 937.259 355.686 936.668 356.125C936.084 356.564 935.69 357.083 935.486 357.682L931.645 357.136C931.948 356.076 932.448 355.189 933.145 354.477C933.842 353.758 934.694 353.22 935.702 352.864C936.709 352.5 937.823 352.318 939.043 352.318C939.884 352.318 940.721 352.417 941.554 352.614C942.387 352.811 943.149 353.136 943.838 353.591C944.527 354.038 945.08 354.648 945.497 355.42C945.921 356.193 946.134 357.159 946.134 358.318V370H942.179V367.602H942.043C941.793 368.087 941.44 368.542 940.986 368.966C940.539 369.383 939.974 369.72 939.293 369.977C938.618 370.227 937.827 370.352 936.918 370.352ZM937.986 367.33C938.812 367.33 939.527 367.167 940.134 366.841C940.74 366.508 941.205 366.068 941.531 365.523C941.865 364.977 942.031 364.383 942.031 363.739V361.682C941.902 361.788 941.683 361.886 941.372 361.977C941.069 362.068 940.728 362.148 940.349 362.216C939.971 362.284 939.596 362.345 939.224 362.398C938.853 362.451 938.531 362.496 938.259 362.534C937.645 362.617 937.096 362.754 936.611 362.943C936.126 363.133 935.743 363.398 935.463 363.739C935.183 364.072 935.043 364.504 935.043 365.034C935.043 365.792 935.319 366.364 935.872 366.75C936.425 367.136 937.13 367.33 937.986 367.33ZM957.861 376.909C956.384 376.909 955.115 376.708 954.054 376.307C952.993 375.913 952.141 375.383 951.497 374.716C950.853 374.049 950.406 373.311 950.156 372.5L953.861 371.602C954.027 371.943 954.27 372.28 954.588 372.614C954.906 372.955 955.334 373.235 955.872 373.455C956.418 373.682 957.103 373.795 957.929 373.795C959.096 373.795 960.062 373.511 960.827 372.943C961.592 372.383 961.974 371.458 961.974 370.17V366.864H961.77C961.558 367.288 961.247 367.723 960.838 368.17C960.437 368.617 959.902 368.992 959.236 369.295C958.577 369.598 957.747 369.75 956.747 369.75C955.406 369.75 954.19 369.436 953.099 368.807C952.016 368.17 951.152 367.223 950.509 365.966C949.872 364.701 949.554 363.117 949.554 361.216C949.554 359.299 949.872 357.682 950.509 356.364C951.152 355.038 952.02 354.034 953.111 353.352C954.202 352.663 955.418 352.318 956.759 352.318C957.781 352.318 958.622 352.492 959.281 352.841C959.948 353.182 960.478 353.595 960.872 354.08C961.266 354.557 961.565 355.008 961.77 355.432H961.997V352.545H966.054V370.284C966.054 371.777 965.698 373.011 964.986 373.989C964.274 374.966 963.3 375.697 962.065 376.182C960.83 376.667 959.429 376.909 957.861 376.909ZM957.895 366.523C958.766 366.523 959.509 366.311 960.122 365.886C960.736 365.462 961.202 364.852 961.52 364.057C961.838 363.261 961.997 362.307 961.997 361.193C961.997 360.095 961.838 359.133 961.52 358.307C961.209 357.481 960.747 356.841 960.134 356.386C959.527 355.924 958.781 355.693 957.895 355.693C956.978 355.693 956.213 355.932 955.599 356.409C954.986 356.886 954.524 357.542 954.213 358.375C953.902 359.201 953.747 360.14 953.747 361.193C953.747 362.261 953.902 363.197 954.213 364C954.531 364.795 954.997 365.417 955.611 365.864C956.232 366.303 956.993 366.523 957.895 366.523ZM977.997 370.341C976.247 370.341 974.736 369.977 973.463 369.25C972.198 368.515 971.224 367.477 970.543 366.136C969.861 364.788 969.52 363.201 969.52 361.375C969.52 359.58 969.861 358.004 970.543 356.648C971.232 355.284 972.194 354.223 973.429 353.466C974.664 352.701 976.115 352.318 977.781 352.318C978.857 352.318 979.872 352.492 980.827 352.841C981.789 353.182 982.637 353.712 983.372 354.432C984.115 355.152 984.698 356.068 985.122 357.182C985.546 358.288 985.759 359.606 985.759 361.136V362.398H971.452V359.625H981.815C981.808 358.837 981.637 358.136 981.304 357.523C980.971 356.902 980.505 356.413 979.906 356.057C979.315 355.701 978.626 355.523 977.838 355.523C976.997 355.523 976.259 355.727 975.622 356.136C974.986 356.538 974.49 357.068 974.134 357.727C973.785 358.379 973.607 359.095 973.599 359.875V362.295C973.599 363.311 973.785 364.182 974.156 364.909C974.527 365.629 975.046 366.182 975.713 366.568C976.38 366.947 977.16 367.136 978.054 367.136C978.652 367.136 979.194 367.053 979.679 366.886C980.164 366.712 980.584 366.458 980.94 366.125C981.296 365.792 981.565 365.379 981.747 364.886L985.588 365.318C985.346 366.333 984.884 367.22 984.202 367.977C983.527 368.727 982.664 369.311 981.611 369.727C980.558 370.136 979.353 370.341 977.997 370.341ZM995.716 370.307C994.345 370.307 993.117 369.955 992.034 369.25C990.951 368.545 990.095 367.523 989.466 366.182C988.837 364.841 988.523 363.212 988.523 361.295C988.523 359.356 988.841 357.72 989.477 356.386C990.121 355.045 990.989 354.034 992.08 353.352C993.17 352.663 994.386 352.318 995.727 352.318C996.75 352.318 997.591 352.492 998.25 352.841C998.909 353.182 999.432 353.595 999.818 354.08C1000.2 354.557 1000.5 355.008 1000.72 355.432H1000.89V346.727H1005.01V370H1000.97V367.25H1000.72C1000.5 367.674 1000.2 368.125 999.795 368.602C999.394 369.072 998.864 369.473 998.205 369.807C997.545 370.14 996.716 370.307 995.716 370.307ZM996.864 366.932C997.735 366.932 998.477 366.697 999.091 366.227C999.705 365.75 1000.17 365.087 1000.49 364.239C1000.81 363.39 1000.97 362.402 1000.97 361.273C1000.97 360.144 1000.81 359.163 1000.49 358.33C1000.18 357.496 999.716 356.848 999.102 356.386C998.496 355.924 997.75 355.693 996.864 355.693C995.947 355.693 995.182 355.932 994.568 356.409C993.955 356.886 993.492 357.545 993.182 358.386C992.871 359.227 992.716 360.189 992.716 361.273C992.716 362.364 992.871 363.337 993.182 364.193C993.5 365.042 993.966 365.712 994.58 366.205C995.201 366.689 995.962 366.932 996.864 366.932ZM1016.49 350.261V346.727H1035.06V350.261H1027.87V370H1023.68V350.261H1016.49ZM1043.54 370.341C1041.84 370.341 1040.36 369.966 1039.11 369.216C1037.86 368.466 1036.89 367.417 1036.2 366.068C1035.52 364.72 1035.18 363.144 1035.18 361.341C1035.18 359.538 1035.52 357.958 1036.2 356.602C1036.89 355.246 1037.86 354.193 1039.11 353.443C1040.36 352.693 1041.84 352.318 1043.54 352.318C1045.24 352.318 1046.72 352.693 1047.97 353.443C1049.22 354.193 1050.19 355.246 1050.87 356.602C1051.56 357.958 1051.9 359.538 1051.9 361.341C1051.9 363.144 1051.56 364.72 1050.87 366.068C1050.19 367.417 1049.22 368.466 1047.97 369.216C1046.72 369.966 1045.24 370.341 1043.54 370.341ZM1043.56 367.045C1044.49 367.045 1045.26 366.792 1045.88 366.284C1046.5 365.769 1046.96 365.08 1047.27 364.216C1047.58 363.352 1047.73 362.39 1047.73 361.33C1047.73 360.261 1047.58 359.295 1047.27 358.432C1046.96 357.561 1046.5 356.867 1045.88 356.352C1045.26 355.837 1044.49 355.58 1043.56 355.58C1042.62 355.58 1041.83 355.837 1041.2 356.352C1040.58 356.867 1040.11 357.561 1039.8 358.432C1039.5 359.295 1039.35 360.261 1039.35 361.33C1039.35 362.39 1039.5 363.352 1039.8 364.216C1040.11 365.08 1040.58 365.769 1041.2 366.284C1041.83 366.792 1042.62 367.045 1043.56 367.045ZM1059.14 364.523L1059.13 359.557H1059.79L1066.07 352.545H1070.87L1063.16 361.136H1062.3L1059.14 364.523ZM1055.39 370V346.727H1059.51V370H1055.39ZM1066.35 370L1060.67 362.057L1063.44 359.159L1071.27 370H1066.35ZM1080.62 370.341C1078.87 370.341 1077.36 369.977 1076.09 369.25C1074.82 368.515 1073.85 367.477 1073.17 366.136C1072.49 364.788 1072.14 363.201 1072.14 361.375C1072.14 359.58 1072.49 358.004 1073.17 356.648C1073.86 355.284 1074.82 354.223 1076.05 353.466C1077.29 352.701 1078.74 352.318 1080.41 352.318C1081.48 352.318 1082.5 352.492 1083.45 352.841C1084.41 353.182 1085.26 353.712 1086 354.432C1086.74 355.152 1087.32 356.068 1087.75 357.182C1088.17 358.288 1088.38 359.606 1088.38 361.136V362.398H1074.08V359.625H1084.44C1084.43 358.837 1084.26 358.136 1083.93 357.523C1083.6 356.902 1083.13 356.413 1082.53 356.057C1081.94 355.701 1081.25 355.523 1080.46 355.523C1079.62 355.523 1078.88 355.727 1078.25 356.136C1077.61 356.538 1077.11 357.068 1076.76 357.727C1076.41 358.379 1076.23 359.095 1076.22 359.875V362.295C1076.22 363.311 1076.41 364.182 1076.78 364.909C1077.15 365.629 1077.67 366.182 1078.34 366.568C1079 366.947 1079.79 367.136 1080.68 367.136C1081.28 367.136 1081.82 367.053 1082.3 366.886C1082.79 366.712 1083.21 366.458 1083.57 366.125C1083.92 365.792 1084.19 365.379 1084.37 364.886L1088.21 365.318C1087.97 366.333 1087.51 367.22 1086.83 367.977C1086.15 368.727 1085.29 369.311 1084.24 369.727C1083.18 370.136 1081.98 370.341 1080.62 370.341ZM1095.98 359.773V370H1091.86V352.545H1095.8V355.511H1096C1096.4 354.534 1097.04 353.758 1097.92 353.182C1098.81 352.606 1099.9 352.318 1101.2 352.318C1102.41 352.318 1103.46 352.576 1104.35 353.091C1105.25 353.606 1105.95 354.352 1106.44 355.33C1106.94 356.307 1107.19 357.492 1107.18 358.886V370H1103.07V359.523C1103.07 358.356 1102.77 357.443 1102.16 356.784C1101.56 356.125 1100.73 355.795 1099.67 355.795C1098.95 355.795 1098.31 355.955 1097.75 356.273C1097.2 356.583 1096.76 357.034 1096.44 357.625C1096.13 358.216 1095.98 358.932 1095.98 359.773Z" fill="black"/>
<defs>
<linearGradient id="paint0_linear_2580_84" x1="286.532" y1="54.2578" x2="65.8204" y2="303.906" gradientUnits="userSpaceOnUse">
<stop stop-color="#FF2AED"/>
<stop offset="1" stop-color="#BC2AFF"/>
</linearGradient>
<linearGradient id="paint1_linear_2580_84" x1="699.587" y1="39.5059" x2="433.484" y2="290.289" gradientUnits="userSpaceOnUse">
<stop stop-color="#2ADCFF"/>
<stop offset="1" stop-color="#2A7CFF"/>
</linearGradient>
<linearGradient id="paint2_linear_2580_84" x1="1096.68" y1="58" x2="864.68" y2="290" gradientUnits="userSpaceOnUse">
<stop stop-color="#FFAD2A"/>
<stop offset="1" stop-color="#FF552A"/>
</linearGradient>
<linearGradient id="paint3_linear_2580_84" x1="1042.68" y1="142" x2="975.49" y2="216.957" gradientUnits="userSpaceOnUse">
<stop stop-color="#FFAD2A"/>
<stop offset="1" stop-color="#FF552A"/>
</linearGradient>
</defs>
</svg>
